<?xml version="1.0" encoding="utf-8"?>
<!-- Generator: Adobe Illustrator 16.0.3, SVG Export Plug-In . SVG Version: 6.00 Build 0)  -->
<!DOCTYPE svg PUBLIC "-//W3C//DTD SVG 1.1//EN" "http://www.w3.org/Graphics/SVG/1.1/DTD/svg11.dtd">
<svg version="1.1" xmlns="http://www.w3.org/2000/svg" xmlns:xlink="http://www.w3.org/1999/xlink" x="0px" y="0px"
	 width="632.968px" height="227.989px" viewBox="0 0 632.968 227.989" enable-background="new 0 0 632.968 227.989"
	 xml:space="preserve">
<g id="GUIDES" display="none">
	
		<circle display="inline" fill="none" stroke="#00FFFF" stroke-width="0.75" stroke-miterlimit="10" cx="208.391" cy="185.576" r="7.006"/>
	
		<circle display="inline" fill="none" stroke="#00FFFF" stroke-width="0.75" stroke-miterlimit="10" cx="208.391" cy="84.407" r="7.006"/>
	
		<circle display="inline" fill="none" stroke="#00FFFF" stroke-width="0.75" stroke-miterlimit="10" cx="194.023" cy="185.576" r="7.006"/>
	
		<circle display="inline" fill="none" stroke="#00FFFF" stroke-width="0.75" stroke-miterlimit="10" cx="179.655" cy="185.576" r="7.006"/>
</g>
<g id="Popcorn">
	<g>
		<g>
			<path fill="#333333" d="M236.874,77.4V55.671c0-3.921-0.45-4.693-2.699-4.693c-1.607,0-3.858,1.092-5.722,2.764V77.4h-8.166
				V55.993c0-4.115-0.578-5.08-2.958-5.08c-1.607,0-3.792,0.837-5.656,2.507V77.4h-8.423V54.449c0-4.756-0.322-6.813-1.22-8.421
				l7.779-2.122c0.579,0.9,0.835,1.672,1.157,3.342c2.249-2.186,5.015-3.342,8.036-3.342c2.701,0,4.95,0.9,6.685,2.701
				c0.45,0.448,0.9,1.029,1.287,1.607c3.021-3.086,5.722-4.308,9.321-4.308c2.572,0,5.015,0.772,6.494,2.057
				c1.864,1.607,2.444,3.536,2.444,8.036V77.4H236.874z"/>
			<path fill="#333333" d="M274.422,73.542c-2.508,2.829-5.787,4.565-10.865,4.565c-8.936,0-14.788-6.686-14.788-17.037
				c0-10.35,5.915-17.23,14.788-17.23c4.693,0,8.357,1.607,11.187,4.952c2.636,3.086,3.793,6.685,3.793,12.022
				C278.537,66.471,277.251,70.328,274.422,73.542z M267.415,51.941c-0.837-1.092-2.188-1.736-3.729-1.736
				c-2.057,0-3.729,1.286-4.436,3.343c-0.579,1.735-0.9,4.051-0.9,7.329c0,3.795,0.387,6.622,1.094,8.294
				c0.771,1.8,2.7,2.701,4.371,2.701c3.729,0,5.337-3.344,5.337-11.123C269.151,56.314,268.572,53.42,267.415,51.941z"/>
			<path fill="#333333" d="M303.419,77.4h-24.237v-5.336l15.492-21.537h-14.207v-6.043h24.431v5.916l-14.529,21.022h15.107
				L303.419,77.4z"/>
			<path fill="#333333" d="M312.356,40.754c-2.893,0-5.271-2.377-5.271-5.334s2.443-5.337,5.4-5.337
				c2.893,0,5.208,2.379,5.208,5.337S315.314,40.754,312.356,40.754z M308.048,77.4V45.062l8.616-1.35V77.4H308.048z"/>
			<path fill="#333333" d="M330.55,78.172c-3.665,0-6.622-1.735-7.651-4.501c-0.643-1.67-0.771-2.699-0.771-7.392V41.72
				c0-4.308-0.128-6.944-0.45-9.901l8.808-1.992c0.322,1.8,0.45,3.921,0.45,8.551v25.651c0,5.656,0.065,6.428,0.579,7.329
				c0.321,0.579,1.028,0.9,1.736,0.9c0.32,0,0.514,0,0.964-0.128l1.479,5.143C334.214,77.851,332.414,78.172,330.55,78.172z"/>
			<path fill="#333333" d="M344.759,78.172c-3.664,0-6.622-1.735-7.65-4.501c-0.644-1.67-0.772-2.699-0.772-7.392V41.72
				c0-4.308-0.128-6.944-0.449-9.901l8.807-1.992c0.322,1.8,0.45,3.921,0.45,8.551v25.651c0,5.656,0.065,6.428,0.579,7.329
				c0.321,0.579,1.028,0.9,1.737,0.9c0.319,0,0.514,0,0.964-0.128l1.479,5.143C348.424,77.851,346.624,78.172,344.759,78.172z"/>
			<path fill="#333333" d="M375.745,79.073c-1.992-0.837-3.792-2.316-4.628-3.986c-0.644,0.642-1.35,1.285-1.993,1.735
				c-1.607,1.157-3.922,1.801-6.622,1.801c-7.329,0-11.313-3.729-11.313-10.287c0-7.715,5.335-11.315,15.814-11.315
				c0.644,0,1.223,0,1.929,0.063v-1.351c0-3.664-0.706-4.885-3.857-4.885c-2.765,0-5.979,1.351-9.515,3.728l-3.664-6.172
				c1.735-1.092,3.021-1.735,5.335-2.699c3.214-1.35,5.979-1.929,9.001-1.929c5.529,0,9.322,2.057,10.607,5.722
				c0.45,1.35,0.644,2.379,0.579,5.915l-0.193,11.057c-0.063,3.601,0.193,5.143,3.086,7.329L375.745,79.073z M368.417,63
				c-5.979,0-8.036,1.094-8.036,5.015c0,2.571,1.607,4.308,3.793,4.308c1.607,0,3.214-0.837,4.5-2.25l0.13-7.072H368.417z"/>
		</g>
	</g>
	<g>
		<path fill="#FBFAF1" d="M51.072,110.421l8.323,65.228l12.367,8.5l-5.673-65.056L51.072,110.421z M84.638,192.997l12.145,8.349
			v-64.534l-15.809-9.126L84.638,192.997z"/>
		<polygon fill="#676867" points="106.445,71.593 106.445,131.393 158.234,101.492 		"/>
		<polygon fill="#C0C1BC" points="54.657,101.492 106.445,131.393 106.445,71.593 		"/>
		<path fill="#A42B1D" d="M172.523,101.492c0-1.701-0.908-3.274-2.381-4.125l-61.315-35.398c-0.738-0.425-1.559-0.638-2.381-0.638
			v10.265l51.788,29.897l-51.788,29.899v87.138c0.943,0,1.882-0.28,2.695-0.839l51.502-35.401c1.119-0.768,1.856-1.975,2.03-3.32
			l9.812-76.873h-0.004C172.509,101.894,172.523,101.694,172.523,101.492z M128.252,192.997l-11.971,8.229v-64.515l15.634-9.027
			L128.252,192.997z M153.497,175.648l-12.367,8.5l5.673-65.056l15.019-8.672L153.497,175.648z"/>
		<path fill="#D83920" d="M106.447,131.391l-0.002,0.002l-51.788-29.901l51.788-29.899l0.002,0.002V61.33
			c0.822,0,1.643,0.213,2.381,0.638c-1.475-0.852-3.291-0.852-4.764,0L42.749,97.367c-1.472,0.852-2.381,2.424-2.381,4.125
			c0,0.202,0.016,0.401,0.04,0.604h-0.001l9.811,76.873c0.17,1.346,0.91,2.553,2.027,3.32l51.504,35.401
			c0.812,0.559,1.753,0.839,2.697,0.839h0.002V131.391z M59.395,175.648l-8.323-65.228l15.017,8.672l5.673,65.056L59.395,175.648z
			 M96.782,201.346l-12.145-8.349l-3.665-65.312l15.809,9.126V201.346z"/>
		<path fill="#F4D256" d="M139.302,42.811c-2.359-2.357-5.239-4.122-8.377-5.207c0.003-0.141,0.016-0.284,0.016-0.425
			c0-10.698-8.705-19.405-19.405-19.405c-7.729,0-14.545,4.518-17.648,11.344C78.845,31.147,67.12,44.19,67.12,59.683
			c0,17.017,13.844,30.863,30.862,30.863c8.73,0,17.066-3.773,22.887-10.216c0.937,0.119,1.875,0.186,2.812,0.186
			c5.777,0,11.425-2.267,15.621-6.463c4.172-4.172,6.47-9.72,6.47-15.619C145.771,52.532,143.474,46.983,139.302,42.811z
			 M132.363,67.117c-3.149,3.151-7.773,4.344-12.071,3.115l-1.345,4.7l-0.002,0.014l-0.002,0.002l-0.001-0.002l-4.283-2.473
			c-4.028,5.253-10.071,8.26-16.677,8.26c-11.608,0-21.052-9.44-21.052-21.05c0-11.364,9.252-20.797,20.624-21.021l3.78-0.078
			l0.89-3.672c1.047-4.315,4.879-7.327,9.312-7.327c5.29,0,9.596,4.302,9.596,9.594c0,0.902-0.141,1.833-0.423,2.762l4.697,1.416
			l-0.937,4.874c0.152,0.011,0.296-0.007,0.448,0.007c2.863,0.287,5.438,1.5,7.448,3.509c2.317,2.321,3.596,5.405,3.596,8.685
			S134.683,64.799,132.363,67.117z"/>
		<path fill="#FCF9E2" d="M120.292,70.232c4.297,1.229,8.921,0.036,12.071-3.115c2.319-2.317,3.598-5.405,3.598-8.685
			s-1.278-6.363-3.596-8.685c-2.01-2.008-4.585-3.222-7.448-3.509c-0.152-0.015-0.296,0.003-0.448-0.007l0.937-4.874l-4.697-1.416
			c0.282-0.929,0.423-1.86,0.423-2.762c0-5.292-4.306-9.594-9.596-9.594c-4.433,0-8.265,3.012-9.312,7.327l-0.89,3.672l-3.78,0.078
			c-11.371,0.224-20.624,9.657-20.624,21.021c0,11.61,9.444,21.05,21.052,21.05c6.606,0,12.649-3.006,16.677-8.26l4.283,2.473
			l0.001,0.002l0.002-0.002l0.002-0.014L120.292,70.232z"/>
		<path fill="#C3C5C7" d="M123.681,80.516c-0.937,0-1.875-0.067-2.812-0.186c-5.821,6.443-14.157,10.216-22.887,10.216
			c-9.65,0-18.271-4.458-23.933-11.415l-8.583,4.956c7.426,9.872,19.238,16.268,32.517,16.268c9.873,0,19.36-3.659,26.703-10.053
			c7.282-0.231,14.35-2.952,19.947-7.826l-9.243-5.337C131.874,79.336,127.815,80.516,123.681,80.516z"/>
		<path fill="#C0C1BC" d="M146.802,119.093l-5.673,65.056l12.367-8.5l8.325-65.228L146.802,119.093z M116.281,201.227l11.971-8.229
			l3.663-65.312l-15.634,9.027V201.227z"/>
	</g>
	<g>
		<path fill="#333333" d="M230.5,145.695h-14.746v33.274h-14.368V91.752h23.191c12.729,0,17.393,1.26,22.183,4.159
			c7.688,4.537,11.973,12.352,11.973,21.93C258.732,134.982,246.255,145.695,230.5,145.695z M239.197,107.758
			c-2.647-2.772-6.428-4.285-12.1-4.285h-11.343v30.627h11.343c10.713,0,15.629-5.042,15.629-15.377
			C242.726,113.935,241.592,110.279,239.197,107.758z"/>
		<path fill="#333333" d="M289.993,180.608c-17.268,0-28.106-12.982-28.106-33.4s10.965-33.526,27.854-33.526
			c18.148,0,28.484,13.486,28.484,33.652C318.225,167.879,307.259,180.608,289.993,180.608z M289.867,124.144
			c-8.823,0-12.604,6.68-12.604,22.183c0,18.527,4.664,23.947,12.982,23.947c8.192,0,12.729-6.681,12.729-22.688
			C302.974,129.563,297.933,124.144,289.867,124.144z"/>
		<path fill="#333333" d="M356.943,180.23c-5.419,0-10.713-1.765-15.124-5.168c0,0.504,0.252,3.151,0.252,6.302v21.301l-13.36,3.402
			v-74.362c0-7.94-0.378-11.217-1.26-15.881l12.729-2.269c0.63,2.143,0.882,3.907,1.009,7.814
			c4.033-4.916,10.335-7.562,17.015-7.562c12.855,0,24.073,9.705,24.073,31.887C382.277,166.87,373.202,180.23,356.943,180.23z
			 M355.557,125.278c-5.042,0-9.705,2.269-13.486,6.554v31.761c3.277,3.277,7.688,5.672,11.848,5.672
			c9.326,0,13.485-6.932,13.485-22.057C367.404,132.966,364.631,125.278,355.557,125.278z"/>
		<path fill="#333333" d="M417.703,180.608c-17.394,0-27.099-12.226-27.099-32.771c0-23.19,13.864-34.282,28.106-34.282
			c6.933,0,11.974,1.639,17.646,6.932l-6.932,9.201c-3.781-3.403-7.059-4.916-10.714-4.916c-4.411,0-8.066,2.269-10.083,6.428
			c-1.891,3.907-2.646,9.831-2.646,17.771c0,8.696,1.387,14.242,4.285,17.394c2.017,2.269,5.042,3.655,8.444,3.655
			c4.412,0,8.697-2.143,12.856-6.303l6.554,8.445C432.323,177.961,426.273,180.608,417.703,180.608z"/>
		<path fill="#333333" d="M470.01,180.608c-17.268,0-28.106-12.982-28.106-33.4s10.966-33.526,27.854-33.526
			c18.149,0,28.484,13.486,28.484,33.652C498.243,167.879,487.278,180.608,470.01,180.608z M469.884,124.144
			c-8.822,0-12.604,6.68-12.604,22.183c0,18.527,4.663,23.947,12.981,23.947c8.192,0,12.73-6.681,12.73-22.688
			C482.993,129.563,477.951,124.144,469.884,124.144z"/>
		<path fill="#333333" d="M538.97,127.294c-1.387-0.504-2.395-0.882-3.907-0.882c-5.798,0-10.713,4.285-11.974,9.453v43.105h-13.864
			v-44.996c0-8.066-0.882-13.234-2.269-17.141l12.729-3.277c1.513,2.899,2.396,6.554,2.396,10.083
			c5.041-6.932,10.083-10.209,16.259-10.209c2.017,0,3.276,0.252,4.915,1.008L538.97,127.294z"/>
		<path fill="#333333" d="M583.211,178.97v-42.349c0-8.697-2.017-11.091-7.311-11.091c-4.033,0-9.831,3.025-13.99,7.184v46.256
			h-13.612v-46.886c0-6.68-0.63-10.587-2.395-15.125l12.604-3.529c1.513,2.899,2.269,5.672,2.269,9.075
			c6.807-5.798,12.73-8.823,19.536-8.823c9.831,0,16.637,5.924,16.637,17.646v47.642H583.211z"/>
	</g>
	<circle fill="#333333" cx="208.57" cy="163.008" r="7.184"/>
</g>
<g id="Goggles" display="none">
	<g display="inline">
		<g>
			<path fill="#333333" d="M236.874,74.917V53.188c0-3.921-0.45-4.693-2.699-4.693c-1.607,0-3.858,1.092-5.722,2.764v23.659h-8.166
				V53.51c0-4.115-0.578-5.08-2.958-5.08c-1.607,0-3.792,0.837-5.656,2.507v23.98h-8.423V51.966c0-4.756-0.322-6.813-1.22-8.421
				l7.779-2.122c0.579,0.9,0.835,1.672,1.157,3.342c2.249-2.186,5.015-3.342,8.036-3.342c2.701,0,4.95,0.9,6.685,2.701
				c0.45,0.448,0.9,1.029,1.287,1.607c3.021-3.086,5.722-4.308,9.321-4.308c2.572,0,5.015,0.772,6.494,2.057
				c1.864,1.607,2.444,3.536,2.444,8.036v23.402H236.874z"/>
			<path fill="#333333" d="M274.422,71.06c-2.508,2.829-5.787,4.565-10.865,4.565c-8.936,0-14.788-6.686-14.788-17.037
				c0-10.35,5.915-17.23,14.788-17.23c4.693,0,8.357,1.607,11.187,4.952c2.636,3.086,3.793,6.685,3.793,12.022
				C278.537,63.988,277.251,67.845,274.422,71.06z M267.415,49.458c-0.837-1.092-2.188-1.736-3.729-1.736
				c-2.057,0-3.729,1.286-4.436,3.343c-0.579,1.735-0.9,4.051-0.9,7.329c0,3.795,0.387,6.622,1.094,8.294
				c0.771,1.8,2.7,2.701,4.371,2.701c3.729,0,5.337-3.344,5.337-11.123C269.151,53.832,268.572,50.937,267.415,49.458z"/>
			<path fill="#333333" d="M303.419,74.917h-24.237v-5.336l15.492-21.537h-14.207v-6.043h24.431v5.916l-14.529,21.022h15.107
				L303.419,74.917z"/>
			<path fill="#333333" d="M312.356,38.271c-2.893,0-5.271-2.377-5.271-5.334s2.443-5.337,5.4-5.337
				c2.893,0,5.208,2.379,5.208,5.337S315.314,38.271,312.356,38.271z M308.048,74.917V42.58l8.616-1.35v33.688H308.048z"/>
			<path fill="#333333" d="M330.55,75.689c-3.665,0-6.622-1.735-7.651-4.501c-0.643-1.67-0.771-2.699-0.771-7.392V39.237
				c0-4.308-0.128-6.944-0.45-9.901l8.808-1.992c0.322,1.8,0.45,3.921,0.45,8.551v25.651c0,5.656,0.065,6.428,0.579,7.329
				c0.321,0.579,1.028,0.9,1.736,0.9c0.32,0,0.514,0,0.964-0.128l1.479,5.143C334.214,75.368,332.414,75.689,330.55,75.689z"/>
			<path fill="#333333" d="M344.759,75.689c-3.664,0-6.622-1.735-7.65-4.501c-0.644-1.67-0.772-2.699-0.772-7.392V39.237
				c0-4.308-0.128-6.944-0.449-9.901l8.807-1.992c0.322,1.8,0.45,3.921,0.45,8.551v25.651c0,5.656,0.065,6.428,0.579,7.329
				c0.321,0.579,1.028,0.9,1.737,0.9c0.319,0,0.514,0,0.964-0.128l1.479,5.143C348.424,75.368,346.624,75.689,344.759,75.689z"/>
			<path fill="#333333" d="M375.745,76.59c-1.992-0.837-3.792-2.316-4.628-3.986c-0.644,0.642-1.35,1.285-1.993,1.735
				c-1.607,1.157-3.922,1.801-6.622,1.801c-7.329,0-11.313-3.729-11.313-10.287c0-7.715,5.335-11.315,15.814-11.315
				c0.644,0,1.223,0,1.929,0.063v-1.351c0-3.664-0.706-4.885-3.857-4.885c-2.765,0-5.979,1.351-9.515,3.728l-3.664-6.172
				c1.735-1.092,3.021-1.735,5.335-2.699c3.214-1.35,5.979-1.929,9.001-1.929c5.529,0,9.322,2.057,10.607,5.722
				c0.45,1.35,0.644,2.379,0.579,5.915l-0.193,11.057c-0.063,3.601,0.193,5.143,3.086,7.329L375.745,76.59z M368.417,60.517
				c-5.979,0-8.036,1.094-8.036,5.015c0,2.571,1.607,4.308,3.793,4.308c1.607,0,3.214-0.837,4.5-2.25l0.13-7.072H368.417z"/>
		</g>
	</g>
	<g display="inline">
		<path fill="#333333" d="M251.676,178.97l-18.023-34.534l-17.393,34.534h-17.771l26.72-46.76l-23.443-40.458h17.645l13.99,26.972
			l13.738-26.972h17.14l-22.182,39.45l26.97,47.768H251.676z"/>
		<path fill="#333333" d="M267.81,151.115V138.26h27.603v12.855H267.81z"/>
		<path fill="#333333" d="M350.366,178.97l-7.562-13.486c-6.05-10.713-10.083-16.763-14.873-21.553
			c-1.639-1.638-2.898-2.521-5.672-2.646v37.686h-14.241V91.752h26.593c19.536,0,28.359,11.343,28.359,24.955
			c0,12.478-8.066,23.947-21.679,23.947c3.15,1.639,8.948,10.083,13.485,17.394l12.856,20.922H350.366z M330.2,103.473h-7.94v27.602
			h7.437c7.562,0,11.596-1.008,14.242-3.655c2.395-2.395,3.907-6.05,3.907-10.587C347.845,108.011,343.056,103.473,330.2,103.473z"
			/>
		<path fill="#333333" d="M418.809,181.616c-3.907-1.512-7.185-4.537-8.697-8.57c-5.167,5.798-10.713,7.814-17.519,7.814
			c-14.621,0-21.175-8.066-21.175-19.158c0-14.746,11.092-22.183,31.51-22.183h4.285v-3.402c0-7.311-1.261-11.218-8.823-11.218
			c-8.192,0-17.015,5.798-19.031,7.311l-6.176-9.957c9.579-6.05,17.52-8.697,27.098-8.697c9.957,0,16.638,3.655,19.41,10.587
			c1.135,2.772,1.135,6.176,1.009,15.628l-0.253,18.276c-0.126,8.57,0.631,11.343,5.546,14.746L418.809,181.616z M404.441,148.847
			c-13.864,0-18.023,4.033-18.023,12.1c0,6.05,3.276,9.831,8.822,9.831c4.411,0,8.696-2.646,11.47-6.68l0.252-15.125
			C406.709,148.973,405.323,148.847,404.441,148.847z"/>
		<path fill="#333333" d="M463.934,180.356c-5.294,15.376-9.831,23.064-24.829,25.837l-4.538-8.948
			c8.697-2.395,13.612-6.05,17.268-18.275h-4.411c-1.765-7.185-4.159-14.116-6.05-19.788l-14.494-42.979l14.116-2.395l11.721,38.82
			c1.135,3.781,3.277,13.36,3.529,14.368c0.126-0.504,2.395-9.579,4.79-17.268l10.587-34.534h14.872L463.934,180.356z"/>
		<path fill="#333333" d="M549.895,180.104c-12.226,0-21.678-3.907-28.484-12.353c-6.68-8.192-9.705-18.023-9.705-31.762
			c0-17.896,5.42-30.375,16.386-38.567c6.302-4.79,13.107-6.806,21.552-6.806c9.957,0,18.78,3.025,25.964,9.201l-7.311,9.074
			c-6.049-4.663-11.721-6.68-18.401-6.68c-16.133,0-22.057,14.116-22.057,34.534c0,12.226,2.27,20.796,6.429,25.712
			c3.528,4.159,9.83,6.554,16.511,6.554c4.537,0,8.318-1.008,11.596-2.772v-22.688H547.5l-2.017-11.847h31.636v41.088
			C569.179,177.583,559.6,180.104,549.895,180.104z"/>
		<path fill="#333333" d="M615.942,180.608c-17.267,0-28.106-12.982-28.106-33.4s10.966-33.526,27.854-33.526
			c18.149,0,28.484,13.486,28.484,33.652C644.174,167.879,633.209,180.608,615.942,180.608z M615.816,124.144
			c-8.822,0-12.604,6.68-12.604,22.183c0,18.527,4.663,23.947,12.981,23.947c8.192,0,12.729-6.681,12.729-22.688
			C628.923,129.563,623.882,124.144,615.816,124.144z"/>
		<path fill="#333333" d="M704.423,125.404c-2.646,0-4.537-0.504-4.915-0.63c0.378,0.378,4.159,4.538,4.159,11.091
			c0,11.091-9.201,19.536-24.199,19.536c-4.537,1.639-8.57,4.033-8.57,6.05c0,2.396,0.882,2.647,15.881,2.647
			c10.209,0,21.174,5.167,21.174,18.149c0,13.611-11.344,20.922-28.358,20.922c-16.511,0-28.484-5.42-28.484-17.394
			c0-2.646,1.008-6.05,1.26-6.806h13.108c-0.252,0.504-1.009,2.772-1.009,4.537c0,5.924,5.042,9.201,13.99,9.201
			c9.831,0,15.125-4.033,15.125-9.957c0-6.933-5.798-8.823-17.646-8.823c-17.141,0-20.922-3.402-20.922-9.704
			s5.293-8.823,12.1-10.966c-9.579-2.772-14.494-8.948-14.494-18.023c0-12.982,10.209-21.553,25.459-21.553
			c9.075,0,14.242,3.277,19.41,3.277c4.159,0,8.066-1.512,11.596-4.411l6.428,8.697C711.986,124.27,708.708,125.404,704.423,125.404
			z M677.956,124.144c-7.058,0-10.965,3.907-10.965,11.091c0,7.31,4.159,10.712,10.965,10.712c7.185,0,10.966-3.78,10.966-10.839
			C688.921,127.924,685.266,124.144,677.956,124.144z"/>
		<path fill="#333333" d="M766.941,125.404c-2.646,0-4.537-0.504-4.915-0.63c0.378,0.378,4.159,4.538,4.159,11.091
			c0,11.091-9.201,19.536-24.199,19.536c-4.537,1.639-8.57,4.033-8.57,6.05c0,2.396,0.882,2.647,15.881,2.647
			c10.209,0,21.174,5.167,21.174,18.149c0,13.611-11.344,20.922-28.358,20.922c-16.511,0-28.484-5.42-28.484-17.394
			c0-2.646,1.008-6.05,1.26-6.806h13.108c-0.252,0.504-1.009,2.772-1.009,4.537c0,5.924,5.042,9.201,13.99,9.201
			c9.831,0,15.125-4.033,15.125-9.957c0-6.933-5.798-8.823-17.646-8.823c-17.141,0-20.922-3.402-20.922-9.704
			s5.293-8.823,12.1-10.966c-9.579-2.772-14.494-8.948-14.494-18.023c0-12.982,10.209-21.553,25.459-21.553
			c9.075,0,14.242,3.277,19.41,3.277c4.159,0,8.066-1.512,11.596-4.411l6.428,8.697C774.503,124.27,771.226,125.404,766.941,125.404
			z M740.473,124.144c-7.058,0-10.965,3.907-10.965,11.091c0,7.31,4.159,10.712,10.965,10.712c7.185,0,10.966-3.78,10.966-10.839
			C751.439,127.924,747.784,124.144,740.473,124.144z"/>
		<path fill="#333333" d="M796.436,180.356c-13.99,0-13.99-12.604-13.99-18.023v-54.322c0-8.697-0.378-13.36-1.26-18.654
			l14.242-3.151c1.008,3.907,1.134,9.201,1.134,17.519v54.07c0,8.571,0.379,9.957,1.387,11.47c0.756,1.135,2.898,1.765,4.537,1.009
			l2.269,8.57C802.234,179.852,799.587,180.356,796.436,180.356z"/>
		<path fill="#333333" d="M824.418,150.863v1.008c0,8.823,3.277,18.15,15.755,18.15c5.924,0,11.091-2.143,15.881-6.303l5.419,8.445
			c-6.68,5.671-14.368,8.444-22.938,8.444c-18.023,0-29.367-12.982-29.367-33.4c0-11.218,2.396-18.653,7.94-24.955
			c5.168-5.924,11.47-8.571,19.536-8.571c6.302,0,12.1,1.639,17.52,6.554c5.545,5.042,8.318,12.855,8.318,27.728v2.899H824.418z
			 M836.644,124.144c-7.814,0-12.1,6.176-12.1,16.511h23.569C848.114,130.319,843.576,124.144,836.644,124.144z"/>
		<path fill="#333333" d="M891.979,180.734c-7.814,0-16.259-2.521-24.452-7.059l4.916-9.957c5.672,3.277,13.486,6.681,20.67,6.681
			c6.05,0,10.335-3.655,10.335-8.949c0-4.915-3.15-7.437-10.335-8.948l-7.688-1.639c-9.578-2.017-15.25-8.57-15.25-17.519
			c0-11.974,9.579-20.292,23.695-20.292c8.696,0,15.628,2.646,21.048,5.545l-4.537,9.579c-5.924-3.151-10.588-4.664-15.629-4.664
			c-5.924,0-9.705,3.277-9.705,8.192c0,3.907,2.143,5.923,8.57,7.562l7.94,2.017c12.856,3.277,16.259,10.335,16.259,17.771
			C917.816,171.912,907.355,180.734,891.979,180.734z"/>
	</g>
	<g display="inline">
		<path opacity="0.6" fill="#F072AB" d="M159.863,105.547c-1.453-1.458-5.194-4.807-8.072-6.355L45.999,39.095
			c-3.475-1.71-8.411-2.518-12.203,1.279c-3.804,3.796-3.225,8.479-1.473,11.869L92.42,158.061c1.45,2.261,5.078,6.934,6.543,8.381
			c16.822,16.815,44.077,16.82,60.899,0C176.687,149.63,176.687,122.358,159.863,105.547z"/>
		<path opacity="0.8" fill="#26A9E0" d="M126.193,40.38c-3.789-3.803-9-2.995-12.066-1.356L9.093,98.66
			c-3.214,2.05-7.514,5.43-8.969,6.888c-16.822,16.811-16.822,44.083,0,60.894c16.822,16.815,44.083,16.815,60.893,0
			c1.464-1.447,4.687-5.735,5.896-7.341l60.562-106.563C129.437,49.481,129.988,44.171,126.193,40.38z"/>
		<path fill="#26A9E0" d="M0.124,166.441c-16.822-16.812-16.822-44.083,0-60.894c16.822-16.822,44.083-16.822,60.893,0
			c16.819,16.811,16.819,44.083,0,60.894C44.206,183.257,16.946,183.257,0.124,166.441z"/>
		<path fill="#F072AB" d="M159.907,166.441c-16.823,16.82-44.08,16.815-60.902,0c-16.82-16.812-16.82-44.077,0-60.9
			c16.822-16.816,44.08-16.816,60.902,0.006C176.729,122.358,176.729,149.63,159.907,166.441z"/>
		<g>
			<path fill="#FFFFFF" d="M145.581,153.894c-8.907,8.896-23.339,8.896-32.242,0c-8.91-8.914-8.91-23.34,0-32.253
				c8.902-8.902,23.334-8.902,32.242,0.011C154.482,130.554,154.482,144.979,145.581,153.894z"/>
			<path fill="#F072AB" d="M129.446,125.752c-9.292,0-16.831,7.993-16.831,11.229c0,0.825,0.494,1.604,1.369,2.306
				c0.841-1.711,1.896-3.338,3.33-4.768c1.547-1.548,3.315-2.734,5.191-3.602c-3.763,3.823-3.752,9.962,0.056,13.759
				c3.81,3.814,9.993,3.814,13.815,0c3.814-3.819,3.814-10.006,0-13.82c-0.319-0.32-0.679-0.579-1.033-0.842
				c2.752,0.829,5.347,2.331,7.522,4.504c1.182,1.172,2.086,2.496,2.864,3.871c0.328-0.449,0.547-0.92,0.547-1.408
				C146.277,133.745,138.747,125.752,129.446,125.752z M135.451,135.187c0,1.43-1.161,2.586-2.591,2.586
				c-1.435,0-2.592-1.156-2.592-2.586c0-1.43,1.157-2.591,2.592-2.591C134.29,132.595,135.451,133.756,135.451,135.187z"/>
		</g>
		<g>
			<path fill="#FFFFFF" d="M45.081,153.894c-8.901,8.896-23.345,8.896-32.241,0c-8.913-8.914-8.913-23.34,0-32.253
				c8.896-8.902,23.34-8.902,32.241,0.011C53.98,130.554,53.98,144.979,45.081,153.894z"/>
			<path fill="#26A9E0" d="M28.956,125.752c-9.3,0-16.833,7.993-16.833,11.229c0,0.825,0.481,1.604,1.346,2.306
				c0.855-1.711,1.918-3.338,3.333-4.768c1.547-1.543,3.312-2.729,5.188-3.595c-3.749,3.825-3.735,9.956,0.056,13.753
				c3.814,3.814,10.007,3.814,13.821,0c3.822-3.819,3.822-10.006,0-13.82c-0.325-0.327-0.689-0.585-1.046-0.854
				c2.765,0.831,5.371,2.333,7.554,4.516c1.169,1.172,2.075,2.496,2.866,3.871c0.314-0.449,0.539-0.92,0.539-1.408
				C45.777,133.745,38.244,125.752,28.956,125.752z M34.948,135.187c0,1.43-1.158,2.586-2.591,2.586
				c-1.423,0-2.594-1.156-2.594-2.586c0-1.43,1.171-2.591,2.594-2.591C33.79,132.595,34.948,133.756,34.948,135.187z"/>
		</g>
	</g>
</g>
<g id="Thimble" display="none">
	<g display="inline">
		<g>
			<path fill="#333333" d="M236.874,74.917V53.188c0-3.921-0.45-4.693-2.699-4.693c-1.607,0-3.858,1.092-5.722,2.764v23.659h-8.166
				V53.51c0-4.115-0.578-5.08-2.958-5.08c-1.607,0-3.792,0.837-5.656,2.507v23.98h-8.423V51.966c0-4.756-0.322-6.813-1.22-8.421
				l7.779-2.122c0.579,0.9,0.835,1.672,1.157,3.342c2.249-2.186,5.015-3.342,8.036-3.342c2.701,0,4.95,0.9,6.685,2.701
				c0.45,0.448,0.9,1.029,1.287,1.607c3.021-3.086,5.722-4.308,9.321-4.308c2.572,0,5.015,0.772,6.494,2.057
				c1.864,1.607,2.444,3.536,2.444,8.036v23.402H236.874z"/>
			<path fill="#333333" d="M274.422,71.06c-2.508,2.829-5.787,4.565-10.865,4.565c-8.936,0-14.788-6.686-14.788-17.037
				c0-10.35,5.915-17.23,14.788-17.23c4.693,0,8.357,1.607,11.187,4.952c2.636,3.086,3.793,6.685,3.793,12.022
				C278.537,63.988,277.251,67.845,274.422,71.06z M267.415,49.458c-0.837-1.092-2.188-1.736-3.729-1.736
				c-2.057,0-3.729,1.286-4.436,3.343c-0.579,1.735-0.9,4.051-0.9,7.329c0,3.795,0.387,6.622,1.094,8.294
				c0.771,1.8,2.7,2.701,4.371,2.701c3.729,0,5.337-3.344,5.337-11.123C269.151,53.832,268.572,50.937,267.415,49.458z"/>
			<path fill="#333333" d="M303.419,74.917h-24.237v-5.336l15.492-21.537h-14.207v-6.043h24.431v5.916l-14.529,21.022h15.107
				L303.419,74.917z"/>
			<path fill="#333333" d="M312.356,38.271c-2.893,0-5.271-2.377-5.271-5.334s2.443-5.337,5.4-5.337
				c2.893,0,5.208,2.379,5.208,5.337S315.314,38.271,312.356,38.271z M308.048,74.917V42.58l8.616-1.35v33.688H308.048z"/>
			<path fill="#333333" d="M330.55,75.689c-3.665,0-6.622-1.735-7.651-4.501c-0.643-1.67-0.771-2.699-0.771-7.392V39.237
				c0-4.308-0.128-6.944-0.45-9.901l8.808-1.992c0.322,1.8,0.45,3.921,0.45,8.551v25.651c0,5.656,0.065,6.428,0.579,7.329
				c0.321,0.579,1.028,0.9,1.736,0.9c0.32,0,0.514,0,0.964-0.128l1.479,5.143C334.214,75.368,332.414,75.689,330.55,75.689z"/>
			<path fill="#333333" d="M344.759,75.689c-3.664,0-6.622-1.735-7.65-4.501c-0.644-1.67-0.772-2.699-0.772-7.392V39.237
				c0-4.308-0.128-6.944-0.449-9.901l8.807-1.992c0.322,1.8,0.45,3.921,0.45,8.551v25.651c0,5.656,0.065,6.428,0.579,7.329
				c0.321,0.579,1.028,0.9,1.737,0.9c0.319,0,0.514,0,0.964-0.128l1.479,5.143C348.424,75.368,346.624,75.689,344.759,75.689z"/>
			<path fill="#333333" d="M375.745,76.59c-1.992-0.837-3.792-2.316-4.628-3.986c-0.644,0.642-1.35,1.285-1.993,1.735
				c-1.607,1.157-3.922,1.801-6.622,1.801c-7.329,0-11.313-3.729-11.313-10.287c0-7.715,5.335-11.315,15.814-11.315
				c0.644,0,1.223,0,1.929,0.063v-1.351c0-3.664-0.706-4.885-3.857-4.885c-2.765,0-5.979,1.351-9.515,3.728l-3.664-6.172
				c1.735-1.092,3.021-1.735,5.335-2.699c3.214-1.35,5.979-1.929,9.001-1.929c5.529,0,9.322,2.057,10.607,5.722
				c0.45,1.35,0.644,2.379,0.579,5.915l-0.193,11.057c-0.063,3.601,0.193,5.143,3.086,7.329L375.745,76.59z M368.417,60.517
				c-5.979,0-8.036,1.094-8.036,5.015c0,2.571,1.607,4.308,3.793,4.308c1.607,0,3.214-0.837,4.5-2.25l0.13-7.072H368.417z"/>
		</g>
	</g>
	<g display="inline">
		<path fill="#333333" d="M252.668,103.852h-21.931v75.118h-14.495v-75.118h-22.056v-12.1h60.372L252.668,103.852z"/>
		<path fill="#333333" d="M295.776,178.97v-43.357c0-7.94-2.773-10.209-8.066-10.209c-4.916,0-10.84,3.151-15.377,7.814v45.751
			h-13.99v-75.875c0-5.672-0.504-10.587-1.261-13.864l13.99-3.025c0.883,3.655,1.261,8.823,1.261,14.999v13.612
			c0,3.529-0.252,6.554-0.252,7.185c6.302-5.672,12.729-8.319,19.536-8.319c7.562,0,13.359,3.655,15.502,7.814
			c1.639,3.151,2.143,6.05,2.143,12.478v44.996H295.776z"/>
		<path fill="#333333" d="M331.09,105.742c-5.042,0-8.949-4.159-8.949-9.201c0-5.167,4.033-9.327,9.201-9.327
			c4.915,0,9.074,4.033,9.074,9.327C340.417,101.583,336.257,105.742,331.09,105.742z M324.158,178.97v-62.767l13.99-2.521v65.288
			H324.158z"/>
		<path fill="#333333" d="M420.835,178.97v-44.113c0-7.436-1.638-9.579-6.554-9.579c-4.663,0-9.074,3.151-13.486,7.31v46.382
			h-13.233v-43.735c0-7.437-1.639-9.831-6.933-9.831c-3.906,0-8.444,2.017-13.107,6.302v47.264h-13.486v-45.751
			c0-7.94-0.756-12.73-2.269-16.133l12.604-3.529c1.261,2.017,2.017,4.664,2.27,8.192c5.041-5.167,10.965-8.066,16.889-8.066
			c5.672,0,10.587,1.891,15.251,9.327c6.176-6.302,12.226-9.327,19.031-9.327c10.461,0,16.637,5.42,16.637,18.654v46.634H420.835z"
			/>
		<path fill="#333333" d="M477.937,180.356c-6.302,0-11.595-2.521-15.502-7.311c-0.631,3.403-0.883,4.411-1.765,5.924h-12.73
			c1.135-2.898,1.639-5.672,1.639-14.242v-60.12c0-7.31-0.504-11.848-1.639-15.376l14.369-3.151
			c0.756,4.537,1.008,7.688,1.008,12.729v14.873c0,3.655-0.252,5.672-0.378,6.05l0.504,0.126c4.411-4.285,9.075-6.176,15.125-6.176
			c15.25,0,24.829,12.478,24.829,32.391C503.397,166.492,492.81,180.356,477.937,180.356z M475.542,125.404
			c-5.798,0-9.579,3.277-12.1,6.428v31.131c2.773,2.898,6.807,5.546,11.848,5.546c8.696,0,12.478-6.302,12.478-22.309
			C487.768,134.73,485.5,125.404,475.542,125.404z"/>
		<path fill="#333333" d="M528.733,180.356c-13.99,0-13.99-12.604-13.99-18.023v-54.322c0-8.697-0.378-13.36-1.26-18.654
			l14.242-3.151c1.008,3.907,1.134,9.201,1.134,17.519v54.07c0,8.571,0.378,9.957,1.387,11.47c0.756,1.135,2.898,1.765,4.537,1.009
			l2.269,8.57C534.531,179.852,531.884,180.356,528.733,180.356z"/>
		<path fill="#333333" d="M556.715,150.863v1.008c0,8.823,3.277,18.15,15.755,18.15c5.924,0,11.091-2.143,15.881-6.303l5.419,8.445
			c-6.68,5.671-14.368,8.444-22.938,8.444c-18.023,0-29.367-12.982-29.367-33.4c0-11.218,2.396-18.653,7.94-24.955
			c5.168-5.924,11.47-8.571,19.536-8.571c6.302,0,12.1,1.639,17.52,6.554c5.546,5.042,8.318,12.855,8.318,27.728v2.899H556.715z
			 M568.941,124.144c-7.814,0-12.1,6.176-12.1,16.511h23.569C580.411,130.319,575.874,124.144,568.941,124.144z"/>
	</g>
	<g display="inline">
		<path fill="#A3B5BE" d="M170.365,163.861c-1.394-1.393-8.318-5.183-8.318-5.183S151.116,57.003,149.119,53.712
			c-1.998-3.291-23.586-24.369-55.174-24.369c-25.97-0.002-50.849,18.932-52.713,24.369c-1.935,5.639-12.938,104.956-12.938,104.956
			s-6.935,3.45-8.008,5.193c-1.073,1.743-3.02,9.327-1.767,14.168c1.251,4.841,40.171,19.355,76.759,19.355
			c34.663,0,74.572-15.273,76.819-19.355C173.504,175.474,171.755,165.255,170.365,163.861z"/>
		<path fill="#FFFFFF" d="M71.093,78.7c0,3.43-2.787,6.2-6.202,6.2c-3.418,0-6.202-2.77-6.202-6.2c0-3.418,2.784-6.189,6.202-6.189
			C68.306,72.51,71.093,75.282,71.093,78.7z"/>
		<path fill="#FFFFFF" d="M99.017,72.508c0,3.43-2.784,6.196-6.205,6.196c-3.403,0-6.19-2.766-6.19-6.196
			c0-3.419,2.787-6.191,6.19-6.191C96.233,66.317,99.017,69.088,99.017,72.508z"/>
		<path fill="#FFFFFF" d="M99.017,97.496c0,3.419-2.784,6.19-6.205,6.19c-3.403,0-6.19-2.771-6.19-6.19
			c0-3.418,2.787-6.199,6.19-6.199C96.233,91.296,99.017,94.078,99.017,97.496z"/>
		<path fill="#FFFFFF" d="M99.017,125.615c0,3.416-2.784,6.196-6.205,6.196c-3.403,0-6.19-2.781-6.19-6.196
			c0-3.421,2.787-6.193,6.19-6.193C96.233,119.422,99.017,122.193,99.017,125.615z"/>
		<path fill="#FFFFFF" d="M126.94,78.694c0,3.43-2.787,6.199-6.213,6.199c-3.407,0-6.191-2.769-6.191-6.199
			c0-3.418,2.784-6.189,6.191-6.189C124.153,72.504,126.94,75.276,126.94,78.694z"/>
		<path fill="#FFFFFF" d="M122.529,106.783c0,2.052-1.67,3.709-3.718,3.709c-2.027,0-3.696-1.657-3.696-3.709
			c0-2.039,1.669-3.699,3.696-3.699C120.859,103.084,122.529,104.745,122.529,106.783z"/>
		<path fill="#FFFFFF" d="M122.529,124.527c0,2.043-1.67,3.702-3.718,3.702c-2.027,0-3.696-1.659-3.696-3.702
			c0-2.048,1.669-3.704,3.696-3.704C120.859,120.823,122.529,122.479,122.529,124.527z"/>
		<path fill="#FFFFFF" d="M67.975,106.783c0,2.052-1.649,3.709-3.697,3.709c-2.05,0-3.719-1.657-3.719-3.709
			c0-2.039,1.669-3.699,3.719-3.699C66.326,103.084,67.975,104.745,67.975,106.783z"/>
		<path fill="#FFFFFF" d="M67.975,124.527c0,2.043-1.649,3.702-3.697,3.702c-2.05,0-3.719-1.659-3.719-3.702
			c0-2.048,1.669-3.704,3.719-3.704C66.326,120.823,67.975,122.479,67.975,124.527z"/>
		<path opacity="0.2" fill="#FFFFFF" d="M170.365,163.861c-1.394-1.393-8.318-5.183-8.318-5.183S151.116,57.003,149.119,53.712
			c-1.998-3.291-23.586-24.369-55.174-24.369L92.82,143.15c0,0-32.261,1.267-64.527,15.518c0,0-6.935,3.45-8.008,5.193
			c-1.073,1.743-2.893,9.703-1.767,14.168c1.127,4.464,40.715,19.355,76.759,19.355c35.676,0,75.718-15.852,76.819-19.355
			C173.199,174.524,171.755,165.255,170.365,163.861z"/>
		<path fill="#647882" d="M153.971,173.457c0,0-24.238,12.828-58.693,12.828c-32.414,0-58.621-12.828-58.621-12.828
			s25.779-14.784,58.621-14.784C129.487,158.673,153.971,173.457,153.971,173.457z"/>
	</g>
</g>
</svg>
